<mxfile host="65bd71144e">
    <diagram id="e7TvoydxK6vFJYyy4MVN" name="Algo">
        <mxGraphModel dx="1730" dy="1200" grid="0" gridSize="10" guides="1" tooltips="1" connect="1" arrows="1" fold="1" page="0" pageScale="1" pageWidth="827" pageHeight="1169" math="0" shadow="0">
            <root>
                <mxCell id="VaXC7Pr43nyWshFLHUHB-0"/>
                <mxCell id="VaXC7Pr43nyWshFLHUHB-1" parent="VaXC7Pr43nyWshFLHUHB-0"/>
                <mxCell id="yuCvk9mEEcZf6m0EE9ZG-0" value="" style="shape=flexArrow;endArrow=classic;html=1;fillColor=#60a917;strokeColor=#2D7600;" parent="VaXC7Pr43nyWshFLHUHB-1" edge="1">
                    <mxGeometry width="50" height="50" relative="1" as="geometry">
                        <mxPoint x="315" y="10" as="sourcePoint"/>
                        <mxPoint x="315" y="65" as="targetPoint"/>
                    </mxGeometry>
                </mxCell>
                <mxCell id="yuCvk9mEEcZf6m0EE9ZG-1" value="" style="shape=flexArrow;endArrow=classic;html=1;fillColor=#60a917;strokeColor=#2D7600;" parent="VaXC7Pr43nyWshFLHUHB-1" edge="1">
                    <mxGeometry width="50" height="50" relative="1" as="geometry">
                        <mxPoint x="390" y="10" as="sourcePoint"/>
                        <mxPoint x="390" y="65" as="targetPoint"/>
                    </mxGeometry>
                </mxCell>
                <mxCell id="yuCvk9mEEcZf6m0EE9ZG-2" value="DONNEES D'ENTREE" style="text;html=1;fillColor=none;align=center;verticalAlign=middle;whiteSpace=wrap;rounded=0;strokeColor=#f0f0f0;" parent="VaXC7Pr43nyWshFLHUHB-1" vertex="1">
                    <mxGeometry x="265" y="-10" width="173" height="20" as="geometry"/>
                </mxCell>
                <mxCell id="vEDBBMdO79ySKfFdUPdM-0" value="saisie utilisateur" style="text;html=1;strokeColor=none;fillColor=none;align=center;verticalAlign=middle;whiteSpace=wrap;rounded=0;" parent="VaXC7Pr43nyWshFLHUHB-1" vertex="1">
                    <mxGeometry x="237" y="26" width="40" height="20" as="geometry"/>
                </mxCell>
                <mxCell id="vEDBBMdO79ySKfFdUPdM-1" value="data.js complet ou partiel" style="text;html=1;strokeColor=none;fillColor=none;align=center;verticalAlign=middle;whiteSpace=wrap;rounded=0;" parent="VaXC7Pr43nyWshFLHUHB-1" vertex="1">
                    <mxGeometry x="410.5" y="26" width="84" height="20" as="geometry"/>
                </mxCell>
                <mxCell id="Emsu0WflFUREVYPeq1AS-0" value="" style="rounded=1;whiteSpace=wrap;html=1;strokeColor=#f0f0f0;arcSize=3;fontStyle=1" parent="VaXC7Pr43nyWshFLHUHB-1" vertex="1">
                    <mxGeometry x="-292" y="180" width="944" height="1023" as="geometry"/>
                </mxCell>
                <mxCell id="Emsu0WflFUREVYPeq1AS-1" value="pour chaque recette dans la liste des recettes restantes (donnée d'entrée)" style="text;html=1;strokeColor=none;fillColor=none;align=center;verticalAlign=middle;whiteSpace=wrap;rounded=0;" parent="VaXC7Pr43nyWshFLHUHB-1" vertex="1">
                    <mxGeometry x="-265.5" y="196" width="161.5" height="20" as="geometry"/>
                </mxCell>
                <mxCell id="kn-wkphkWVVWGhXRXuoQ-0" value="" style="group" parent="VaXC7Pr43nyWshFLHUHB-1" vertex="1" connectable="0">
                    <mxGeometry x="-178" y="305" width="119" height="60" as="geometry"/>
                </mxCell>
                <mxCell id="kn-wkphkWVVWGhXRXuoQ-1" value="" style="rounded=0;whiteSpace=wrap;html=1;" parent="kn-wkphkWVVWGhXRXuoQ-0" vertex="1">
                    <mxGeometry width="119" height="60" as="geometry"/>
                </mxCell>
                <mxCell id="kn-wkphkWVVWGhXRXuoQ-2" value="Récupération de l'item 'description'" style="text;html=1;strokeColor=none;fillColor=none;align=center;verticalAlign=middle;whiteSpace=wrap;rounded=0;" parent="kn-wkphkWVVWGhXRXuoQ-0" vertex="1">
                    <mxGeometry x="4.958333333333334" y="20" width="109.08333333333334" height="20" as="geometry"/>
                </mxCell>
                <mxCell id="kn-wkphkWVVWGhXRXuoQ-3" value="" style="group" parent="VaXC7Pr43nyWshFLHUHB-1" vertex="1" connectable="0">
                    <mxGeometry x="-28" y="305" width="119" height="60" as="geometry"/>
                </mxCell>
                <mxCell id="kn-wkphkWVVWGhXRXuoQ-4" value="" style="rounded=0;whiteSpace=wrap;html=1;" parent="kn-wkphkWVVWGhXRXuoQ-3" vertex="1">
                    <mxGeometry width="119" height="60" as="geometry"/>
                </mxCell>
                <mxCell id="kn-wkphkWVVWGhXRXuoQ-5" value="Récupération de l'item 'name'" style="text;html=1;fillColor=none;align=center;verticalAlign=middle;whiteSpace=wrap;rounded=0;" parent="kn-wkphkWVVWGhXRXuoQ-3" vertex="1">
                    <mxGeometry x="4.958333333333334" y="20" width="109.08333333333334" height="20" as="geometry"/>
                </mxCell>
                <mxCell id="kn-wkphkWVVWGhXRXuoQ-6" value="" style="group" parent="VaXC7Pr43nyWshFLHUHB-1" vertex="1" connectable="0">
                    <mxGeometry x="112" y="305" width="119" height="60" as="geometry"/>
                </mxCell>
                <mxCell id="kn-wkphkWVVWGhXRXuoQ-7" value="" style="rounded=0;whiteSpace=wrap;html=1;" parent="kn-wkphkWVVWGhXRXuoQ-6" vertex="1">
                    <mxGeometry x="-1" width="119" height="60" as="geometry"/>
                </mxCell>
                <mxCell id="kn-wkphkWVVWGhXRXuoQ-8" value="Récupération de l'item 'ingredients'" style="text;html=1;strokeColor=none;fillColor=none;align=center;verticalAlign=middle;whiteSpace=wrap;rounded=0;" parent="kn-wkphkWVVWGhXRXuoQ-6" vertex="1">
                    <mxGeometry x="4.958333333333334" y="20" width="109.08333333333334" height="20" as="geometry"/>
                </mxCell>
                <mxCell id="kn-wkphkWVVWGhXRXuoQ-13" value="" style="group" parent="VaXC7Pr43nyWshFLHUHB-1" vertex="1" connectable="0">
                    <mxGeometry x="-108" y="424" width="119" height="60" as="geometry"/>
                </mxCell>
                <mxCell id="kn-wkphkWVVWGhXRXuoQ-14" value="" style="rounded=0;whiteSpace=wrap;html=1;" parent="kn-wkphkWVVWGhXRXuoQ-13" vertex="1">
                    <mxGeometry width="119" height="60" as="geometry"/>
                </mxCell>
                <mxCell id="kn-wkphkWVVWGhXRXuoQ-15" value="Concaténation des 2 items, et réaffectation de substring" style="text;html=1;strokeColor=none;fillColor=none;align=center;verticalAlign=middle;whiteSpace=wrap;rounded=0;" parent="kn-wkphkWVVWGhXRXuoQ-13" vertex="1">
                    <mxGeometry x="4.958333333333334" y="20" width="109.08333333333334" height="20" as="geometry"/>
                </mxCell>
                <mxCell id="kn-wkphkWVVWGhXRXuoQ-20" style="edgeStyle=orthogonalEdgeStyle;rounded=0;orthogonalLoop=1;jettySize=auto;html=1;entryX=0.5;entryY=0;entryDx=0;entryDy=0;" parent="VaXC7Pr43nyWshFLHUHB-1" source="kn-wkphkWVVWGhXRXuoQ-1" target="kn-wkphkWVVWGhXRXuoQ-14" edge="1">
                    <mxGeometry relative="1" as="geometry"/>
                </mxCell>
                <mxCell id="kn-wkphkWVVWGhXRXuoQ-21" style="edgeStyle=orthogonalEdgeStyle;rounded=0;orthogonalLoop=1;jettySize=auto;html=1;exitX=0.5;exitY=1;exitDx=0;exitDy=0;entryX=0.5;entryY=0;entryDx=0;entryDy=0;" parent="VaXC7Pr43nyWshFLHUHB-1" source="kn-wkphkWVVWGhXRXuoQ-4" target="kn-wkphkWVVWGhXRXuoQ-14" edge="1">
                    <mxGeometry relative="1" as="geometry"/>
                </mxCell>
                <mxCell id="kn-wkphkWVVWGhXRXuoQ-22" value="" style="rounded=1;whiteSpace=wrap;html=1;strokeColor=#f0f0f0;arcSize=4;fontStyle=1" parent="VaXC7Pr43nyWshFLHUHB-1" vertex="1">
                    <mxGeometry x="24" y="508" width="218" height="449" as="geometry"/>
                </mxCell>
                <mxCell id="kn-wkphkWVVWGhXRXuoQ-25" value="pour chaque inrgédient de l'item ingrédients" style="text;html=1;strokeColor=none;fillColor=none;align=center;verticalAlign=middle;whiteSpace=wrap;rounded=0;" parent="VaXC7Pr43nyWshFLHUHB-1" vertex="1">
                    <mxGeometry x="34" y="520" width="126" height="20" as="geometry"/>
                </mxCell>
                <mxCell id="kn-wkphkWVVWGhXRXuoQ-26" value="" style="group" parent="VaXC7Pr43nyWshFLHUHB-1" vertex="1" connectable="0">
                    <mxGeometry x="73.5" y="570" width="119" height="60" as="geometry"/>
                </mxCell>
                <mxCell id="kn-wkphkWVVWGhXRXuoQ-27" value="" style="rounded=0;whiteSpace=wrap;html=1;" parent="kn-wkphkWVVWGhXRXuoQ-26" vertex="1">
                    <mxGeometry width="119" height="60" as="geometry"/>
                </mxCell>
                <mxCell id="kn-wkphkWVVWGhXRXuoQ-28" value="Récupération de l'item 'ingredient'" style="text;html=1;strokeColor=none;fillColor=none;align=center;verticalAlign=middle;whiteSpace=wrap;rounded=0;" parent="kn-wkphkWVVWGhXRXuoQ-26" vertex="1">
                    <mxGeometry x="4.958333333333334" y="20" width="109.08333333333334" height="20" as="geometry"/>
                </mxCell>
                <mxCell id="kn-wkphkWVVWGhXRXuoQ-30" style="edgeStyle=orthogonalEdgeStyle;rounded=0;orthogonalLoop=1;jettySize=auto;html=1;exitX=0.5;exitY=1;exitDx=0;exitDy=0;" parent="VaXC7Pr43nyWshFLHUHB-1" source="kn-wkphkWVVWGhXRXuoQ-14" edge="1">
                    <mxGeometry relative="1" as="geometry">
                        <mxPoint x="26" y="645" as="targetPoint"/>
                        <Array as="points">
                            <mxPoint x="-48" y="645"/>
                            <mxPoint x="26" y="645"/>
                        </Array>
                    </mxGeometry>
                </mxCell>
                <mxCell id="kn-wkphkWVVWGhXRXuoQ-41" style="edgeStyle=orthogonalEdgeStyle;rounded=0;orthogonalLoop=1;jettySize=auto;html=1;exitX=0.5;exitY=1;exitDx=0;exitDy=0;entryX=0.5;entryY=0;entryDx=0;entryDy=0;" parent="VaXC7Pr43nyWshFLHUHB-1" source="kn-wkphkWVVWGhXRXuoQ-31" target="kn-wkphkWVVWGhXRXuoQ-40" edge="1">
                    <mxGeometry relative="1" as="geometry"/>
                </mxCell>
                <mxCell id="kn-wkphkWVVWGhXRXuoQ-31" value="" style="rounded=0;whiteSpace=wrap;html=1;" parent="VaXC7Pr43nyWshFLHUHB-1" vertex="1">
                    <mxGeometry x="73.5" y="661" width="119" height="60" as="geometry"/>
                </mxCell>
                <mxCell id="kn-wkphkWVVWGhXRXuoQ-32" style="edgeStyle=orthogonalEdgeStyle;rounded=0;orthogonalLoop=1;jettySize=auto;html=1;exitX=0.5;exitY=1;exitDx=0;exitDy=0;entryX=0.5;entryY=0;entryDx=0;entryDy=0;" parent="VaXC7Pr43nyWshFLHUHB-1" source="kn-wkphkWVVWGhXRXuoQ-27" target="kn-wkphkWVVWGhXRXuoQ-31" edge="1">
                    <mxGeometry relative="1" as="geometry"/>
                </mxCell>
                <mxCell id="kn-wkphkWVVWGhXRXuoQ-36" value="Concaténation de l'ingrédient avec la variable substring" style="text;html=1;strokeColor=none;fillColor=none;align=center;verticalAlign=middle;whiteSpace=wrap;rounded=0;" parent="VaXC7Pr43nyWshFLHUHB-1" vertex="1">
                    <mxGeometry x="78.45833333333337" y="683" width="109.08333333333334" height="20" as="geometry"/>
                </mxCell>
                <mxCell id="kn-wkphkWVVWGhXRXuoQ-37" style="edgeStyle=orthogonalEdgeStyle;rounded=0;orthogonalLoop=1;jettySize=auto;html=1;exitX=0.5;exitY=1;exitDx=0;exitDy=0;" parent="VaXC7Pr43nyWshFLHUHB-1" source="kn-wkphkWVVWGhXRXuoQ-22" target="kn-wkphkWVVWGhXRXuoQ-22" edge="1">
                    <mxGeometry relative="1" as="geometry"/>
                </mxCell>
                <mxCell id="kn-wkphkWVVWGhXRXuoQ-47" style="edgeStyle=orthogonalEdgeStyle;rounded=0;orthogonalLoop=1;jettySize=auto;html=1;exitX=0.5;exitY=1;exitDx=0;exitDy=0;entryX=0.5;entryY=0;entryDx=0;entryDy=0;" parent="VaXC7Pr43nyWshFLHUHB-1" source="kn-wkphkWVVWGhXRXuoQ-40" target="kn-wkphkWVVWGhXRXuoQ-44" edge="1">
                    <mxGeometry relative="1" as="geometry"/>
                </mxCell>
                <mxCell id="kn-wkphkWVVWGhXRXuoQ-40" value="" style="rounded=0;whiteSpace=wrap;html=1;" parent="VaXC7Pr43nyWshFLHUHB-1" vertex="1">
                    <mxGeometry x="73.5" y="758" width="119" height="60" as="geometry"/>
                </mxCell>
                <mxCell id="kn-wkphkWVVWGhXRXuoQ-42" value="Réaffectation de la variable substring" style="text;html=1;strokeColor=none;fillColor=none;align=center;verticalAlign=middle;whiteSpace=wrap;rounded=0;" parent="VaXC7Pr43nyWshFLHUHB-1" vertex="1">
                    <mxGeometry x="83.41833333333335" y="774" width="109.08333333333334" height="20" as="geometry"/>
                </mxCell>
                <mxCell id="kn-wkphkWVVWGhXRXuoQ-66" value="" style="edgeStyle=orthogonalEdgeStyle;rounded=0;orthogonalLoop=1;jettySize=auto;exitX=0.5;exitY=1;exitDx=0;exitDy=0;entryX=0.5;entryY=0;entryDx=0;entryDy=0;endArrow=classic;endFill=1;html=1;" parent="VaXC7Pr43nyWshFLHUHB-1" source="kn-wkphkWVVWGhXRXuoQ-44" target="kn-wkphkWVVWGhXRXuoQ-65" edge="1">
                    <mxGeometry relative="1" as="geometry"/>
                </mxCell>
                <mxCell id="kn-wkphkWVVWGhXRXuoQ-68" value="NON" style="edgeLabel;html=1;align=center;verticalAlign=middle;resizable=0;points=[];" parent="kn-wkphkWVVWGhXRXuoQ-66" vertex="1" connectable="0">
                    <mxGeometry x="0.201" relative="1" as="geometry">
                        <mxPoint y="-18" as="offset"/>
                    </mxGeometry>
                </mxCell>
                <mxCell id="kn-wkphkWVVWGhXRXuoQ-44" value="" style="rhombus;whiteSpace=wrap;html=1;strokeColor=#f0f0f0;" parent="VaXC7Pr43nyWshFLHUHB-1" vertex="1">
                    <mxGeometry x="74" y="851" width="118.5" height="79" as="geometry"/>
                </mxCell>
                <mxCell id="kn-wkphkWVVWGhXRXuoQ-48" value="Y a t il encore un ingrédient?" style="text;html=1;strokeColor=none;fillColor=none;align=center;verticalAlign=middle;whiteSpace=wrap;rounded=0;" parent="VaXC7Pr43nyWshFLHUHB-1" vertex="1">
                    <mxGeometry x="78.45833333333337" y="883.5" width="109.08333333333334" height="20" as="geometry"/>
                </mxCell>
                <mxCell id="kn-wkphkWVVWGhXRXuoQ-56" style="edgeStyle=orthogonalEdgeStyle;rounded=0;orthogonalLoop=1;jettySize=auto;html=1;exitX=0.5;exitY=0;exitDx=0;exitDy=0;endArrow=none;endFill=0;" parent="VaXC7Pr43nyWshFLHUHB-1" edge="1">
                    <mxGeometry relative="1" as="geometry">
                        <mxPoint x="-48" y="644" as="targetPoint"/>
                        <mxPoint x="-48.5" y="743" as="sourcePoint"/>
                        <Array as="points">
                            <mxPoint x="-48" y="716"/>
                            <mxPoint x="-48" y="716"/>
                        </Array>
                    </mxGeometry>
                </mxCell>
                <mxCell id="kn-wkphkWVVWGhXRXuoQ-51" value="Passagre à l'ingrédient suivant" style="rounded=0;whiteSpace=wrap;html=1;" parent="VaXC7Pr43nyWshFLHUHB-1" vertex="1">
                    <mxGeometry x="-106" y="743" width="119" height="60" as="geometry"/>
                </mxCell>
                <mxCell id="kn-wkphkWVVWGhXRXuoQ-52" value="" style="edgeStyle=orthogonalEdgeStyle;rounded=0;orthogonalLoop=1;jettySize=auto;html=1;exitX=0;exitY=0.5;exitDx=0;exitDy=0;" parent="VaXC7Pr43nyWshFLHUHB-1" source="kn-wkphkWVVWGhXRXuoQ-44" edge="1">
                    <mxGeometry relative="1" as="geometry">
                        <mxPoint x="-48" y="803" as="targetPoint"/>
                        <mxPoint x="74" y="890.5" as="sourcePoint"/>
                        <Array as="points">
                            <mxPoint x="-48" y="891"/>
                        </Array>
                    </mxGeometry>
                </mxCell>
                <mxCell id="kn-wkphkWVVWGhXRXuoQ-53" value="OUI" style="edgeLabel;html=1;align=center;verticalAlign=middle;resizable=0;points=[];" parent="kn-wkphkWVVWGhXRXuoQ-52" vertex="1" connectable="0">
                    <mxGeometry x="-0.5918" y="1" relative="1" as="geometry">
                        <mxPoint x="-36" as="offset"/>
                    </mxGeometry>
                </mxCell>
                <mxCell id="kn-wkphkWVVWGhXRXuoQ-59" style="edgeStyle=orthogonalEdgeStyle;rounded=0;orthogonalLoop=1;jettySize=auto;html=1;exitX=0;exitY=0.5;exitDx=0;exitDy=0;endArrow=classic;endFill=1;entryX=0.041;entryY=-0.05;entryDx=0;entryDy=0;entryPerimeter=0;" parent="VaXC7Pr43nyWshFLHUHB-1" source="kn-wkphkWVVWGhXRXuoQ-58" target="pZqrWyT5cRHL6kkgNBwY-53" edge="1">
                    <mxGeometry relative="1" as="geometry">
                        <mxPoint x="170" y="180" as="targetPoint"/>
                    </mxGeometry>
                </mxCell>
                <mxCell id="kn-wkphkWVVWGhXRXuoQ-61" value="input" style="edgeLabel;html=1;align=center;verticalAlign=middle;resizable=0;points=[];" parent="kn-wkphkWVVWGhXRXuoQ-59" vertex="1" connectable="0">
                    <mxGeometry x="-0.2028" y="4" relative="1" as="geometry">
                        <mxPoint x="12" y="-4" as="offset"/>
                    </mxGeometry>
                </mxCell>
                <mxCell id="kn-wkphkWVVWGhXRXuoQ-60" style="edgeStyle=orthogonalEdgeStyle;rounded=0;orthogonalLoop=1;jettySize=auto;html=1;exitX=1;exitY=0.5;exitDx=0;exitDy=0;endArrow=classic;endFill=1;" parent="VaXC7Pr43nyWshFLHUHB-1" source="kn-wkphkWVVWGhXRXuoQ-58" edge="1">
                    <mxGeometry relative="1" as="geometry">
                        <mxPoint x="511" y="138" as="targetPoint"/>
                        <Array as="points">
                            <mxPoint x="511" y="92"/>
                            <mxPoint x="511" y="138"/>
                        </Array>
                    </mxGeometry>
                </mxCell>
                <mxCell id="kn-wkphkWVVWGhXRXuoQ-62" value="tag" style="edgeLabel;html=1;align=center;verticalAlign=middle;resizable=0;points=[];" parent="kn-wkphkWVVWGhXRXuoQ-60" vertex="1" connectable="0">
                    <mxGeometry x="-0.0395" y="-1" relative="1" as="geometry">
                        <mxPoint x="-20" y="-1" as="offset"/>
                    </mxGeometry>
                </mxCell>
                <mxCell id="kn-wkphkWVVWGhXRXuoQ-58" value="" style="rhombus;whiteSpace=wrap;html=1;strokeColor=#f0f0f0;" parent="VaXC7Pr43nyWshFLHUHB-1" vertex="1">
                    <mxGeometry x="262" y="52" width="176" height="80" as="geometry"/>
                </mxCell>
                <mxCell id="z4npEAfc9zzg-NZEA-yX-2" value="L'utilisateur a t il saisi dans le champ input ou le tag?" style="text;html=1;strokeColor=none;fillColor=none;align=center;verticalAlign=middle;whiteSpace=wrap;rounded=0;" parent="VaXC7Pr43nyWshFLHUHB-1" vertex="1">
                    <mxGeometry x="295.4583333333333" y="82" width="109.08333333333334" height="20" as="geometry"/>
                </mxCell>
                <mxCell id="hSMlaSLdjR0oDc9FFkvP-9" style="edgeStyle=orthogonalEdgeStyle;rounded=0;orthogonalLoop=1;jettySize=auto;html=1;exitX=0.5;exitY=1;exitDx=0;exitDy=0;entryX=0.533;entryY=0.01;entryDx=0;entryDy=0;entryPerimeter=0;endArrow=classic;endFill=1;" parent="VaXC7Pr43nyWshFLHUHB-1" source="kn-wkphkWVVWGhXRXuoQ-65" target="kn-wkphkWVVWGhXRXuoQ-69" edge="1">
                    <mxGeometry relative="1" as="geometry"/>
                </mxCell>
                <mxCell id="kn-wkphkWVVWGhXRXuoQ-65" value="Conversion de substring en tableau keywordsList formaté (word length&amp;gt;2, lowerCase, symboles exclus (ex: comma))" style="rounded=0;whiteSpace=wrap;html=1;" parent="VaXC7Pr43nyWshFLHUHB-1" vertex="1">
                    <mxGeometry x="50" y="983" width="168" height="82" as="geometry"/>
                </mxCell>
                <mxCell id="kn-wkphkWVVWGhXRXuoQ-72" style="edgeStyle=orthogonalEdgeStyle;rounded=0;orthogonalLoop=1;jettySize=auto;html=1;exitX=0;exitY=0.5;exitDx=0;exitDy=0;entryX=1;entryY=0.5;entryDx=0;entryDy=0;endArrow=classic;endFill=1;" parent="VaXC7Pr43nyWshFLHUHB-1" source="kn-wkphkWVVWGhXRXuoQ-69" target="kn-wkphkWVVWGhXRXuoQ-70" edge="1">
                    <mxGeometry relative="1" as="geometry"/>
                </mxCell>
                <mxCell id="kn-wkphkWVVWGhXRXuoQ-69" value="Comparaison de l'input_content ou du tag_content avec keywordsList grace aux méthodes filter() et includes()" style="rounded=0;whiteSpace=wrap;html=1;strokeColor=#FF0000;" parent="VaXC7Pr43nyWshFLHUHB-1" vertex="1">
                    <mxGeometry x="51" y="1103" width="167" height="82" as="geometry"/>
                </mxCell>
                <mxCell id="hSMlaSLdjR0oDc9FFkvP-7" style="edgeStyle=orthogonalEdgeStyle;rounded=0;orthogonalLoop=1;jettySize=auto;html=1;exitX=0.5;exitY=0;exitDx=0;exitDy=0;entryX=0.5;entryY=1;entryDx=0;entryDy=0;endArrow=classic;endFill=1;" parent="VaXC7Pr43nyWshFLHUHB-1" source="kn-wkphkWVVWGhXRXuoQ-70" target="kn-wkphkWVVWGhXRXuoQ-73" edge="1">
                    <mxGeometry relative="1" as="geometry"/>
                </mxCell>
                <mxCell id="hSMlaSLdjR0oDc9FFkvP-8" value="OUI" style="edgeLabel;html=1;align=center;verticalAlign=middle;resizable=0;points=[];" parent="hSMlaSLdjR0oDc9FFkvP-7" vertex="1" connectable="0">
                    <mxGeometry x="0.2605" relative="1" as="geometry">
                        <mxPoint y="11" as="offset"/>
                    </mxGeometry>
                </mxCell>
                <mxCell id="hSMlaSLdjR0oDc9FFkvP-10" value="" style="edgeStyle=orthogonalEdgeStyle;rounded=0;orthogonalLoop=1;jettySize=auto;html=1;endArrow=classic;endFill=1;" parent="VaXC7Pr43nyWshFLHUHB-1" source="kn-wkphkWVVWGhXRXuoQ-70" target="kn-wkphkWVVWGhXRXuoQ-73" edge="1">
                    <mxGeometry relative="1" as="geometry"/>
                </mxCell>
                <mxCell id="kn-wkphkWVVWGhXRXuoQ-70" value="" style="rhombus;whiteSpace=wrap;html=1;strokeColor=#f0f0f0;" parent="VaXC7Pr43nyWshFLHUHB-1" vertex="1">
                    <mxGeometry x="-114.5" y="1104.5" width="118.5" height="79" as="geometry"/>
                </mxCell>
                <mxCell id="hSMlaSLdjR0oDc9FFkvP-11" style="edgeStyle=orthogonalEdgeStyle;rounded=0;orthogonalLoop=1;jettySize=auto;html=1;exitX=0;exitY=0.5;exitDx=0;exitDy=0;entryX=1;entryY=0.65;entryDx=0;entryDy=0;entryPerimeter=0;endArrow=classic;endFill=1;" parent="VaXC7Pr43nyWshFLHUHB-1" source="kn-wkphkWVVWGhXRXuoQ-71" target="hSMlaSLdjR0oDc9FFkvP-1" edge="1">
                    <mxGeometry relative="1" as="geometry"/>
                </mxCell>
                <mxCell id="hSMlaSLdjR0oDc9FFkvP-12" value="NON" style="edgeLabel;html=1;align=center;verticalAlign=middle;resizable=0;points=[];" parent="hSMlaSLdjR0oDc9FFkvP-11" vertex="1" connectable="0">
                    <mxGeometry x="0.265" y="1" relative="1" as="geometry">
                        <mxPoint x="8" as="offset"/>
                    </mxGeometry>
                </mxCell>
                <mxCell id="kn-wkphkWVVWGhXRXuoQ-71" value="Au moins une correspondance a été trouvée?" style="text;html=1;strokeColor=none;fillColor=none;align=center;verticalAlign=middle;whiteSpace=wrap;rounded=0;" parent="VaXC7Pr43nyWshFLHUHB-1" vertex="1">
                    <mxGeometry x="-109.79166666666663" y="1134" width="109.08333333333334" height="20" as="geometry"/>
                </mxCell>
                <mxCell id="kn-wkphkWVVWGhXRXuoQ-76" style="edgeStyle=orthogonalEdgeStyle;rounded=0;orthogonalLoop=1;jettySize=auto;html=1;exitX=0.5;exitY=0;exitDx=0;exitDy=0;entryX=0.5;entryY=1;entryDx=0;entryDy=0;endArrow=classic;endFill=1;" parent="VaXC7Pr43nyWshFLHUHB-1" source="kn-wkphkWVVWGhXRXuoQ-73" target="kn-wkphkWVVWGhXRXuoQ-75" edge="1">
                    <mxGeometry relative="1" as="geometry"/>
                </mxCell>
                <mxCell id="kn-wkphkWVVWGhXRXuoQ-73" value="La recette est poussée dans le tableau des recettes restantes" style="rounded=0;whiteSpace=wrap;html=1;" parent="VaXC7Pr43nyWshFLHUHB-1" vertex="1">
                    <mxGeometry x="-115" y="1005" width="119" height="60" as="geometry"/>
                </mxCell>
                <mxCell id="hSMlaSLdjR0oDc9FFkvP-5" style="edgeStyle=orthogonalEdgeStyle;rounded=0;orthogonalLoop=1;jettySize=auto;html=1;exitX=0;exitY=0.5;exitDx=0;exitDy=0;entryX=0.5;entryY=0;entryDx=0;entryDy=0;endArrow=classic;endFill=1;" parent="VaXC7Pr43nyWshFLHUHB-1" source="kn-wkphkWVVWGhXRXuoQ-75" target="hSMlaSLdjR0oDc9FFkvP-1" edge="1">
                    <mxGeometry relative="1" as="geometry"/>
                </mxCell>
                <mxCell id="kn-wkphkWVVWGhXRXuoQ-75" value="L'id recette est poussée dans le tableau des id recettes restantes" style="rounded=0;whiteSpace=wrap;html=1;" parent="VaXC7Pr43nyWshFLHUHB-1" vertex="1">
                    <mxGeometry x="-113.29" y="912" width="119" height="60" as="geometry"/>
                </mxCell>
                <mxCell id="hSMlaSLdjR0oDc9FFkvP-6" style="edgeStyle=orthogonalEdgeStyle;rounded=0;orthogonalLoop=1;jettySize=auto;html=1;exitX=0;exitY=0.5;exitDx=0;exitDy=0;entryX=0.11;entryY=0;entryDx=0;entryDy=0;entryPerimeter=0;endArrow=classic;endFill=1;" parent="VaXC7Pr43nyWshFLHUHB-1" source="hSMlaSLdjR0oDc9FFkvP-1" target="Emsu0WflFUREVYPeq1AS-0" edge="1">
                    <mxGeometry relative="1" as="geometry">
                        <Array as="points">
                            <mxPoint x="-309" y="1135"/>
                            <mxPoint x="-309" y="160"/>
                            <mxPoint x="-188" y="160"/>
                        </Array>
                    </mxGeometry>
                </mxCell>
                <mxCell id="hSMlaSLdjR0oDc9FFkvP-1" value="Passage à la recette suivante" style="rounded=0;whiteSpace=wrap;html=1;" parent="VaXC7Pr43nyWshFLHUHB-1" vertex="1">
                    <mxGeometry x="-281" y="1104.5" width="119" height="60" as="geometry"/>
                </mxCell>
                <mxCell id="pZqrWyT5cRHL6kkgNBwY-0" style="edgeStyle=orthogonalEdgeStyle;rounded=0;orthogonalLoop=1;jettySize=auto;html=1;exitX=-0.019;exitY=0.297;exitDx=0;exitDy=0;entryX=0.5;entryY=0;entryDx=0;entryDy=0;exitPerimeter=0;" parent="VaXC7Pr43nyWshFLHUHB-1" source="kn-wkphkWVVWGhXRXuoQ-22" target="kn-wkphkWVVWGhXRXuoQ-31" edge="1">
                    <mxGeometry relative="1" as="geometry">
                        <Array as="points">
                            <mxPoint x="20" y="644"/>
                            <mxPoint x="133" y="644"/>
                        </Array>
                    </mxGeometry>
                </mxCell>
                <mxCell id="pZqrWyT5cRHL6kkgNBwY-5" style="edgeStyle=orthogonalEdgeStyle;rounded=0;orthogonalLoop=1;jettySize=auto;html=1;exitX=0.404;exitY=-0.002;exitDx=0;exitDy=0;entryX=0.5;entryY=0;entryDx=0;entryDy=0;endArrow=classic;endFill=1;exitPerimeter=0;" parent="VaXC7Pr43nyWshFLHUHB-1" target="kn-wkphkWVVWGhXRXuoQ-4" edge="1">
                    <mxGeometry relative="1" as="geometry">
                        <mxPoint x="170.57999999999993" y="177.954" as="sourcePoint"/>
                        <mxPoint x="31.5" y="253" as="targetPoint"/>
                        <Array as="points">
                            <mxPoint x="171" y="274"/>
                            <mxPoint x="32" y="274"/>
                        </Array>
                    </mxGeometry>
                </mxCell>
                <mxCell id="pZqrWyT5cRHL6kkgNBwY-6" style="edgeStyle=orthogonalEdgeStyle;rounded=0;orthogonalLoop=1;jettySize=auto;html=1;entryX=0.5;entryY=0;entryDx=0;entryDy=0;endArrow=classic;endFill=1;" parent="VaXC7Pr43nyWshFLHUHB-1" target="kn-wkphkWVVWGhXRXuoQ-7" edge="1">
                    <mxGeometry relative="1" as="geometry">
                        <mxPoint x="170.5" y="180" as="sourcePoint"/>
                        <mxPoint x="170.5" y="253" as="targetPoint"/>
                        <Array as="points"/>
                    </mxGeometry>
                </mxCell>
                <mxCell id="pZqrWyT5cRHL6kkgNBwY-7" style="edgeStyle=orthogonalEdgeStyle;rounded=0;orthogonalLoop=1;jettySize=auto;html=1;exitX=0.5;exitY=1;exitDx=0;exitDy=0;entryX=0.674;entryY=0.004;entryDx=0;entryDy=0;entryPerimeter=0;endArrow=classic;endFill=1;" parent="VaXC7Pr43nyWshFLHUHB-1" source="kn-wkphkWVVWGhXRXuoQ-7" target="kn-wkphkWVVWGhXRXuoQ-22" edge="1">
                    <mxGeometry relative="1" as="geometry"/>
                </mxCell>
                <mxCell id="pZqrWyT5cRHL6kkgNBwY-8" style="edgeStyle=orthogonalEdgeStyle;rounded=0;orthogonalLoop=1;jettySize=auto;html=1;entryX=0.75;entryY=0;entryDx=0;entryDy=0;endArrow=classic;endFill=1;exitX=0.044;exitY=1;exitDx=0;exitDy=0;exitPerimeter=0;" parent="VaXC7Pr43nyWshFLHUHB-1" source="pZqrWyT5cRHL6kkgNBwY-53" target="kn-wkphkWVVWGhXRXuoQ-1" edge="1">
                    <mxGeometry relative="1" as="geometry">
                        <mxPoint x="170" y="179" as="sourcePoint"/>
                        <mxPoint x="-100.00700000000006" y="254.01999999999998" as="targetPoint"/>
                        <Array as="points">
                            <mxPoint x="170" y="275"/>
                            <mxPoint x="-89" y="275"/>
                        </Array>
                    </mxGeometry>
                </mxCell>
                <mxCell id="pZqrWyT5cRHL6kkgNBwY-28" style="edgeStyle=orthogonalEdgeStyle;rounded=0;orthogonalLoop=1;jettySize=auto;html=1;exitX=0.5;exitY=1;exitDx=0;exitDy=0;entryX=0.5;entryY=0;entryDx=0;entryDy=0;endArrow=classic;endFill=1;" parent="VaXC7Pr43nyWshFLHUHB-1" source="pZqrWyT5cRHL6kkgNBwY-11" target="pZqrWyT5cRHL6kkgNBwY-22" edge="1">
                    <mxGeometry relative="1" as="geometry"/>
                </mxCell>
                <mxCell id="pZqrWyT5cRHL6kkgNBwY-31" value="Ustensil" style="edgeLabel;html=1;align=center;verticalAlign=middle;resizable=0;points=[];" parent="pZqrWyT5cRHL6kkgNBwY-28" vertex="1" connectable="0">
                    <mxGeometry x="-0.3636" y="1" relative="1" as="geometry">
                        <mxPoint x="-42" as="offset"/>
                    </mxGeometry>
                </mxCell>
                <mxCell id="pZqrWyT5cRHL6kkgNBwY-11" value="" style="rhombus;whiteSpace=wrap;html=1;strokeColor=#f0f0f0;" parent="VaXC7Pr43nyWshFLHUHB-1" vertex="1">
                    <mxGeometry x="453" y="284" width="118.5" height="79" as="geometry"/>
                </mxCell>
                <mxCell id="pZqrWyT5cRHL6kkgNBwY-13" style="edgeStyle=orthogonalEdgeStyle;rounded=0;orthogonalLoop=1;jettySize=auto;html=1;entryX=0.5;entryY=0;entryDx=0;entryDy=0;endArrow=classic;endFill=1;exitX=0.966;exitY=1.02;exitDx=0;exitDy=0;exitPerimeter=0;" parent="VaXC7Pr43nyWshFLHUHB-1" source="pZqrWyT5cRHL6kkgNBwY-53" target="pZqrWyT5cRHL6kkgNBwY-11" edge="1">
                    <mxGeometry relative="1" as="geometry">
                        <mxPoint x="512" y="179" as="sourcePoint"/>
                        <Array as="points">
                            <mxPoint x="511" y="179"/>
                            <mxPoint x="512" y="179"/>
                        </Array>
                    </mxGeometry>
                </mxCell>
                <mxCell id="pZqrWyT5cRHL6kkgNBwY-27" style="edgeStyle=orthogonalEdgeStyle;rounded=0;orthogonalLoop=1;jettySize=auto;html=1;exitX=0;exitY=0.5;exitDx=0;exitDy=0;endArrow=classic;endFill=1;entryX=1;entryY=0.317;entryDx=0;entryDy=0;entryPerimeter=0;" parent="VaXC7Pr43nyWshFLHUHB-1" source="pZqrWyT5cRHL6kkgNBwY-11" target="kn-wkphkWVVWGhXRXuoQ-7" edge="1">
                    <mxGeometry relative="1" as="geometry">
                        <mxPoint x="236" y="324" as="targetPoint"/>
                    </mxGeometry>
                </mxCell>
                <mxCell id="pZqrWyT5cRHL6kkgNBwY-30" value="Ingrédient" style="edgeLabel;html=1;align=center;verticalAlign=middle;resizable=0;points=[];" parent="pZqrWyT5cRHL6kkgNBwY-27" vertex="1" connectable="0">
                    <mxGeometry x="-0.1582" y="1" relative="1" as="geometry">
                        <mxPoint x="20" as="offset"/>
                    </mxGeometry>
                </mxCell>
                <mxCell id="pZqrWyT5cRHL6kkgNBwY-29" style="edgeStyle=orthogonalEdgeStyle;rounded=0;orthogonalLoop=1;jettySize=auto;html=1;exitX=1;exitY=0.5;exitDx=0;exitDy=0;entryX=0.5;entryY=0;entryDx=0;entryDy=0;endArrow=classic;endFill=1;" parent="VaXC7Pr43nyWshFLHUHB-1" target="pZqrWyT5cRHL6kkgNBwY-25" edge="1">
                    <mxGeometry relative="1" as="geometry">
                        <mxPoint x="568.0816666666667" y="323.5" as="sourcePoint"/>
                        <mxPoint x="722.5" y="429" as="targetPoint"/>
                        <Array as="points">
                            <mxPoint x="613" y="324"/>
                            <mxPoint x="613" y="415"/>
                            <mxPoint x="564" y="415"/>
                        </Array>
                    </mxGeometry>
                </mxCell>
                <mxCell id="pZqrWyT5cRHL6kkgNBwY-35" value="Appareil" style="edgeLabel;html=1;align=center;verticalAlign=middle;resizable=0;points=[];" parent="pZqrWyT5cRHL6kkgNBwY-29" vertex="1" connectable="0">
                    <mxGeometry x="-0.3312" y="1" relative="1" as="geometry">
                        <mxPoint x="-2" y="16" as="offset"/>
                    </mxGeometry>
                </mxCell>
                <mxCell id="pZqrWyT5cRHL6kkgNBwY-17" value="Quelle est la catégorie du tag?" style="text;html=1;strokeColor=none;fillColor=none;align=center;verticalAlign=middle;whiteSpace=wrap;rounded=0;" parent="VaXC7Pr43nyWshFLHUHB-1" vertex="1">
                    <mxGeometry x="458.9983333333334" y="310.5" width="109.08333333333334" height="20" as="geometry"/>
                </mxCell>
                <mxCell id="pZqrWyT5cRHL6kkgNBwY-21" value="" style="group" parent="VaXC7Pr43nyWshFLHUHB-1" vertex="1" connectable="0">
                    <mxGeometry x="323" y="434" width="119" height="60" as="geometry"/>
                </mxCell>
                <mxCell id="pZqrWyT5cRHL6kkgNBwY-22" value="" style="rounded=0;whiteSpace=wrap;html=1;" parent="pZqrWyT5cRHL6kkgNBwY-21" vertex="1">
                    <mxGeometry width="119" height="60" as="geometry"/>
                </mxCell>
                <mxCell id="pZqrWyT5cRHL6kkgNBwY-23" value="Récupération de l'item 'ustensils'" style="text;html=1;strokeColor=none;fillColor=none;align=center;verticalAlign=middle;whiteSpace=wrap;rounded=0;" parent="pZqrWyT5cRHL6kkgNBwY-21" vertex="1">
                    <mxGeometry x="4.958333333333334" y="20" width="109.08333333333334" height="20" as="geometry"/>
                </mxCell>
                <mxCell id="pZqrWyT5cRHL6kkgNBwY-24" value="" style="group" parent="VaXC7Pr43nyWshFLHUHB-1" vertex="1" connectable="0">
                    <mxGeometry x="504" y="437" width="119" height="60" as="geometry"/>
                </mxCell>
                <mxCell id="pZqrWyT5cRHL6kkgNBwY-25" value="" style="rounded=0;whiteSpace=wrap;html=1;" parent="pZqrWyT5cRHL6kkgNBwY-24" vertex="1">
                    <mxGeometry width="119" height="60" as="geometry"/>
                </mxCell>
                <mxCell id="pZqrWyT5cRHL6kkgNBwY-26" value="Récupération de l'item 'appliance'" style="text;html=1;strokeColor=none;fillColor=none;align=center;verticalAlign=middle;whiteSpace=wrap;rounded=0;" parent="pZqrWyT5cRHL6kkgNBwY-24" vertex="1">
                    <mxGeometry x="4.958333333333334" y="20" width="109.08333333333334" height="20" as="geometry"/>
                </mxCell>
                <mxCell id="pZqrWyT5cRHL6kkgNBwY-40" style="edgeStyle=orthogonalEdgeStyle;rounded=0;orthogonalLoop=1;jettySize=auto;html=1;exitX=0.5;exitY=1;exitDx=0;exitDy=0;entryX=1;entryY=0.5;entryDx=0;entryDy=0;endArrow=classic;endFill=1;" parent="VaXC7Pr43nyWshFLHUHB-1" source="pZqrWyT5cRHL6kkgNBwY-38" target="kn-wkphkWVVWGhXRXuoQ-65" edge="1">
                    <mxGeometry relative="1" as="geometry"/>
                </mxCell>
                <mxCell id="pZqrWyT5cRHL6kkgNBwY-38" value="" style="rounded=0;whiteSpace=wrap;html=1;" parent="VaXC7Pr43nyWshFLHUHB-1" vertex="1">
                    <mxGeometry x="380" y="547" width="169" height="60" as="geometry"/>
                </mxCell>
                <mxCell id="pZqrWyT5cRHL6kkgNBwY-39" value="Affectation de la variable subString avec le contenu de l'item par join() ou concat()" style="text;html=1;strokeColor=none;fillColor=none;align=center;verticalAlign=middle;whiteSpace=wrap;rounded=0;" parent="VaXC7Pr43nyWshFLHUHB-1" vertex="1">
                    <mxGeometry x="387" y="567" width="159" height="20" as="geometry"/>
                </mxCell>
                <mxCell id="pZqrWyT5cRHL6kkgNBwY-41" style="edgeStyle=orthogonalEdgeStyle;rounded=0;orthogonalLoop=1;jettySize=auto;html=1;exitX=0.5;exitY=1;exitDx=0;exitDy=0;entryX=0.5;entryY=0;entryDx=0;entryDy=0;endArrow=classic;endFill=1;" parent="VaXC7Pr43nyWshFLHUHB-1" source="pZqrWyT5cRHL6kkgNBwY-25" target="pZqrWyT5cRHL6kkgNBwY-38" edge="1">
                    <mxGeometry relative="1" as="geometry"/>
                </mxCell>
                <mxCell id="pZqrWyT5cRHL6kkgNBwY-49" style="edgeStyle=orthogonalEdgeStyle;rounded=0;orthogonalLoop=1;jettySize=auto;html=1;exitX=0.5;exitY=1;exitDx=0;exitDy=0;entryX=0.5;entryY=0;entryDx=0;entryDy=0;endArrow=classic;endFill=1;" parent="VaXC7Pr43nyWshFLHUHB-1" source="pZqrWyT5cRHL6kkgNBwY-22" target="pZqrWyT5cRHL6kkgNBwY-38" edge="1">
                    <mxGeometry relative="1" as="geometry"/>
                </mxCell>
                <mxCell id="pZqrWyT5cRHL6kkgNBwY-53" value="Création d'une variable intermédiaire substring" style="text;html=1;fillColor=none;align=center;verticalAlign=middle;whiteSpace=wrap;rounded=0;strokeColor=#f0f0f0;" parent="VaXC7Pr43nyWshFLHUHB-1" vertex="1">
                    <mxGeometry x="154" y="140" width="370" height="20" as="geometry"/>
                </mxCell>
            </root>
        </mxGraphModel>
    </diagram>
    <diagram id="NKTM3P_TSREIos6MvvAB" name="Process">
        <mxGraphModel dx="1730" dy="1200" grid="0" gridSize="10" guides="1" tooltips="1" connect="1" arrows="1" fold="1" page="0" pageScale="1" pageWidth="827" pageHeight="1169" background="none" math="0" shadow="0">
            <root>
                <mxCell id="0"/>
                <mxCell id="1" parent="0"/>
                <mxCell id="boZw4MsQUKxaq4jCPLAk-152" style="edgeStyle=orthogonalEdgeStyle;rounded=0;orthogonalLoop=1;jettySize=auto;html=1;exitX=1;exitY=0.5;exitDx=0;exitDy=0;entryX=0;entryY=0.5;entryDx=0;entryDy=0;" parent="1" source="boZw4MsQUKxaq4jCPLAk-146" target="boZw4MsQUKxaq4jCPLAk-150" edge="1">
                    <mxGeometry relative="1" as="geometry"/>
                </mxCell>
                <mxCell id="boZw4MsQUKxaq4jCPLAk-146" value="" style="rhombus;whiteSpace=wrap;html=1;" parent="1" vertex="1">
                    <mxGeometry x="396.5" y="519" width="113" height="113" as="geometry"/>
                </mxCell>
                <mxCell id="5" value="" style="group" parent="1" vertex="1" connectable="0">
                    <mxGeometry x="393" y="40" width="120" height="60" as="geometry"/>
                </mxCell>
                <mxCell id="2" value="" style="rounded=0;whiteSpace=wrap;html=1;" parent="5" vertex="1">
                    <mxGeometry width="120" height="60" as="geometry"/>
                </mxCell>
                <mxCell id="4" value="&lt;b&gt;L'utilisateur saisi une chaine de caractères dans l'input&lt;/b&gt;" style="text;html=1;strokeColor=none;fillColor=none;align=center;verticalAlign=middle;whiteSpace=wrap;rounded=0;" parent="5" vertex="1">
                    <mxGeometry x="5" y="20" width="110" height="20" as="geometry"/>
                </mxCell>
                <mxCell id="9" style="edgeStyle=orthogonalEdgeStyle;rounded=0;orthogonalLoop=1;jettySize=auto;html=1;entryX=0.5;entryY=0;entryDx=0;entryDy=0;" parent="1" target="boZw4MsQUKxaq4jCPLAk-133" edge="1">
                    <mxGeometry relative="1" as="geometry">
                        <mxPoint x="453" y="100" as="sourcePoint"/>
                        <mxPoint x="453" y="123" as="targetPoint"/>
                    </mxGeometry>
                </mxCell>
                <mxCell id="14" style="edgeStyle=orthogonalEdgeStyle;rounded=0;orthogonalLoop=1;jettySize=auto;html=1;entryX=0;entryY=0.5;entryDx=0;entryDy=0;exitX=1;exitY=0.5;exitDx=0;exitDy=0;" parent="1" source="boZw4MsQUKxaq4jCPLAk-133" target="boZw4MsQUKxaq4jCPLAk-136" edge="1">
                    <mxGeometry relative="1" as="geometry">
                        <mxPoint x="583" y="175" as="targetPoint"/>
                        <mxPoint x="561" y="270" as="sourcePoint"/>
                    </mxGeometry>
                </mxCell>
                <mxCell id="15" style="edgeStyle=orthogonalEdgeStyle;rounded=0;orthogonalLoop=1;jettySize=auto;html=1;entryX=1;entryY=0.5;entryDx=0;entryDy=0;" parent="1" target="2" edge="1">
                    <mxGeometry relative="1" as="geometry">
                        <mxPoint x="583" y="70" as="sourcePoint"/>
                        <Array as="points">
                            <mxPoint x="643" y="70"/>
                        </Array>
                    </mxGeometry>
                </mxCell>
                <mxCell id="16" value="NON" style="text;html=1;strokeColor=none;fillColor=none;align=center;verticalAlign=middle;whiteSpace=wrap;rounded=0;" parent="1" vertex="1">
                    <mxGeometry x="527" y="150" width="40" height="20" as="geometry"/>
                </mxCell>
                <mxCell id="17" value="" style="group" parent="1" vertex="1" connectable="0">
                    <mxGeometry x="393" y="247" width="120" height="60" as="geometry"/>
                </mxCell>
                <mxCell id="18" value="" style="rounded=0;whiteSpace=wrap;html=1;" parent="17" vertex="1">
                    <mxGeometry width="120" height="60" as="geometry"/>
                </mxCell>
                <mxCell id="19" value="Y a t il des tags déjà inscrits ?" style="text;html=1;strokeColor=none;fillColor=none;align=center;verticalAlign=middle;whiteSpace=wrap;rounded=0;" parent="17" vertex="1">
                    <mxGeometry x="5" y="20" width="110" height="20" as="geometry"/>
                </mxCell>
                <mxCell id="20" style="edgeStyle=orthogonalEdgeStyle;rounded=0;orthogonalLoop=1;jettySize=auto;html=1;exitX=0.5;exitY=1;exitDx=0;exitDy=0;entryX=0.5;entryY=0;entryDx=0;entryDy=0;" parent="1" source="boZw4MsQUKxaq4jCPLAk-133" target="18" edge="1">
                    <mxGeometry relative="1" as="geometry">
                        <mxPoint x="453" y="230" as="targetPoint"/>
                        <mxPoint x="453" y="213" as="sourcePoint"/>
                    </mxGeometry>
                </mxCell>
                <mxCell id="21" value="OUI" style="text;html=1;strokeColor=none;fillColor=none;align=center;verticalAlign=middle;whiteSpace=wrap;rounded=0;" parent="1" vertex="1">
                    <mxGeometry x="463" y="215" width="40" height="20" as="geometry"/>
                </mxCell>
                <mxCell id="22" value="" style="group" parent="1" vertex="1" connectable="0">
                    <mxGeometry x="393" y="340" width="80" height="60" as="geometry"/>
                </mxCell>
                <mxCell id="23" value="" style="rounded=0;whiteSpace=wrap;html=1;" parent="22" vertex="1">
                    <mxGeometry width="80" height="60" as="geometry"/>
                </mxCell>
                <mxCell id="24" value="Suppression des tags" style="text;html=1;strokeColor=none;fillColor=none;align=center;verticalAlign=middle;whiteSpace=wrap;rounded=0;" parent="22" vertex="1">
                    <mxGeometry x="3.333333333333333" y="20" width="73.33333333333333" height="20" as="geometry"/>
                </mxCell>
                <mxCell id="25" value="" style="group" parent="1" vertex="1" connectable="0">
                    <mxGeometry x="393" y="434" width="120" height="60" as="geometry"/>
                </mxCell>
                <mxCell id="26" value="" style="rounded=0;whiteSpace=wrap;html=1;" parent="25" vertex="1">
                    <mxGeometry width="120" height="60" as="geometry"/>
                </mxCell>
                <mxCell id="27" value="Algorithme de recherche sur les 50 recettes" style="text;html=1;strokeColor=none;fillColor=none;align=center;verticalAlign=middle;whiteSpace=wrap;rounded=0;" parent="25" vertex="1">
                    <mxGeometry x="5" y="20" width="110" height="20" as="geometry"/>
                </mxCell>
                <mxCell id="109" value="" style="shape=image;html=1;verticalLabelPosition=bottom;verticalAlign=top;imageAspect=1;aspect=fixed;image=img/clipart/Gear_128x128.png" parent="25" vertex="1">
                    <mxGeometry x="-10" y="-9" width="20" height="23.46" as="geometry"/>
                </mxCell>
                <mxCell id="28" style="edgeStyle=orthogonalEdgeStyle;rounded=0;orthogonalLoop=1;jettySize=auto;html=1;entryX=0.5;entryY=0;entryDx=0;entryDy=0;exitX=0.343;exitY=1.023;exitDx=0;exitDy=0;exitPerimeter=0;" parent="1" source="18" target="23" edge="1">
                    <mxGeometry relative="1" as="geometry">
                        <mxPoint x="433" y="310" as="sourcePoint"/>
                    </mxGeometry>
                </mxCell>
                <mxCell id="29" style="edgeStyle=orthogonalEdgeStyle;rounded=0;orthogonalLoop=1;jettySize=auto;html=1;exitX=0.5;exitY=1;exitDx=0;exitDy=0;entryX=0.337;entryY=-0.003;entryDx=0;entryDy=0;entryPerimeter=0;" parent="1" source="23" target="26" edge="1">
                    <mxGeometry relative="1" as="geometry"/>
                </mxCell>
                <mxCell id="30" style="edgeStyle=orthogonalEdgeStyle;rounded=0;orthogonalLoop=1;jettySize=auto;html=1;exitX=0.75;exitY=1;exitDx=0;exitDy=0;entryX=0.75;entryY=0;entryDx=0;entryDy=0;" parent="1" source="18" target="26" edge="1">
                    <mxGeometry relative="1" as="geometry"/>
                </mxCell>
                <mxCell id="31" value="OUI" style="text;html=1;strokeColor=none;fillColor=none;align=center;verticalAlign=middle;whiteSpace=wrap;rounded=0;" parent="1" vertex="1">
                    <mxGeometry x="393" y="312" width="40" height="20" as="geometry"/>
                </mxCell>
                <mxCell id="32" value="NON" style="text;html=1;strokeColor=none;fillColor=none;align=center;verticalAlign=middle;whiteSpace=wrap;rounded=0;" parent="1" vertex="1">
                    <mxGeometry x="487" y="350" width="40" height="20" as="geometry"/>
                </mxCell>
                <mxCell id="11" value="" style="rounded=0;whiteSpace=wrap;html=1;" parent="1" vertex="1">
                    <mxGeometry x="583" y="40" width="120" height="60" as="geometry"/>
                </mxCell>
                <mxCell id="34" value="" style="group" parent="1" vertex="1" connectable="0">
                    <mxGeometry x="583" y="40" width="120" height="60" as="geometry"/>
                </mxCell>
                <mxCell id="35" value="message d'erreur" style="text;html=1;strokeColor=none;fillColor=none;align=center;verticalAlign=middle;whiteSpace=wrap;rounded=0;" parent="34" vertex="1">
                    <mxGeometry x="5" y="20" width="110" height="20" as="geometry"/>
                </mxCell>
                <mxCell id="43" style="edgeStyle=orthogonalEdgeStyle;rounded=0;orthogonalLoop=1;jettySize=auto;html=1;exitX=0.5;exitY=0;exitDx=0;exitDy=0;entryX=0.5;entryY=1;entryDx=0;entryDy=0;" parent="1" source="boZw4MsQUKxaq4jCPLAk-136" target="11" edge="1">
                    <mxGeometry relative="1" as="geometry">
                        <mxPoint x="643" y="128" as="sourcePoint"/>
                        <mxPoint x="650" y="100" as="targetPoint"/>
                    </mxGeometry>
                </mxCell>
                <mxCell id="45" value="" style="group" parent="1" vertex="1" connectable="0">
                    <mxGeometry x="583" y="271" width="120" height="60" as="geometry"/>
                </mxCell>
                <mxCell id="46" value="" style="rounded=0;whiteSpace=wrap;html=1;" parent="45" vertex="1">
                    <mxGeometry width="120" height="60" as="geometry"/>
                </mxCell>
                <mxCell id="47" value="Affichage des 50 recettes" style="text;html=1;strokeColor=none;fillColor=none;align=center;verticalAlign=middle;whiteSpace=wrap;rounded=0;" parent="45" vertex="1">
                    <mxGeometry x="5" y="20" width="110" height="20" as="geometry"/>
                </mxCell>
                <mxCell id="48" style="edgeStyle=orthogonalEdgeStyle;rounded=0;orthogonalLoop=1;jettySize=auto;html=1;exitX=0.5;exitY=1;exitDx=0;exitDy=0;entryX=0.5;entryY=0;entryDx=0;entryDy=0;exitPerimeter=0;" parent="1" source="boZw4MsQUKxaq4jCPLAk-136" target="46" edge="1">
                    <mxGeometry relative="1" as="geometry">
                        <mxPoint x="643" y="205" as="sourcePoint"/>
                    </mxGeometry>
                </mxCell>
                <mxCell id="49" value="0" style="text;html=1;strokeColor=none;fillColor=none;align=center;verticalAlign=middle;whiteSpace=wrap;rounded=0;" parent="1" vertex="1">
                    <mxGeometry x="642" y="233" width="40" height="20" as="geometry"/>
                </mxCell>
                <mxCell id="50" style="edgeStyle=orthogonalEdgeStyle;rounded=0;orthogonalLoop=1;jettySize=auto;html=1;entryX=0.5;entryY=0;entryDx=0;entryDy=0;exitX=1;exitY=0.5;exitDx=0;exitDy=0;" parent="1" source="46" target="2" edge="1">
                    <mxGeometry relative="1" as="geometry">
                        <mxPoint x="703" y="260" as="sourcePoint"/>
                        <Array as="points">
                            <mxPoint x="723" y="301"/>
                            <mxPoint x="723" y="20"/>
                            <mxPoint x="453" y="20"/>
                        </Array>
                    </mxGeometry>
                </mxCell>
                <mxCell id="52" value="" style="group" parent="1" vertex="1" connectable="0">
                    <mxGeometry x="70" y="40" width="120" height="60" as="geometry"/>
                </mxCell>
                <mxCell id="53" value="" style="rounded=0;whiteSpace=wrap;html=1;" parent="52" vertex="1">
                    <mxGeometry width="120" height="60" as="geometry"/>
                </mxCell>
                <mxCell id="54" value="&lt;b&gt;L'utilisateur sélectionne un tag&lt;/b&gt;" style="text;html=1;strokeColor=none;fillColor=none;align=center;verticalAlign=middle;whiteSpace=wrap;rounded=0;" parent="52" vertex="1">
                    <mxGeometry x="5" y="20" width="110" height="20" as="geometry"/>
                </mxCell>
                <mxCell id="58" style="edgeStyle=orthogonalEdgeStyle;rounded=0;orthogonalLoop=1;jettySize=auto;html=1;exitX=0.5;exitY=1;exitDx=0;exitDy=0;entryX=0.5;entryY=0;entryDx=0;entryDy=0;" parent="1" source="26" target="boZw4MsQUKxaq4jCPLAk-146" edge="1">
                    <mxGeometry relative="1" as="geometry">
                        <mxPoint x="453" y="522" as="targetPoint"/>
                    </mxGeometry>
                </mxCell>
                <mxCell id="59" style="edgeStyle=orthogonalEdgeStyle;rounded=0;orthogonalLoop=1;jettySize=auto;html=1;entryX=1;entryY=0.35;entryDx=0;entryDy=0;entryPerimeter=0;exitX=0;exitY=0.5;exitDx=0;exitDy=0;" parent="1" source="56" target="53" edge="1">
                    <mxGeometry relative="1" as="geometry">
                        <mxPoint x="209.20001220703125" y="69.40001678466797" as="targetPoint"/>
                        <mxPoint x="239" y="541" as="sourcePoint"/>
                    </mxGeometry>
                </mxCell>
                <mxCell id="61" value="" style="group" parent="1" vertex="1" connectable="0">
                    <mxGeometry x="-64" y="239" width="120" height="60" as="geometry"/>
                </mxCell>
                <mxCell id="62" value="" style="rounded=0;whiteSpace=wrap;html=1;" parent="61" vertex="1">
                    <mxGeometry width="120" height="60" as="geometry"/>
                </mxCell>
                <mxCell id="63" value="Algorithme de recherche sur les 50 recettes" style="text;html=1;strokeColor=none;fillColor=none;align=center;verticalAlign=middle;whiteSpace=wrap;rounded=0;" parent="61" vertex="1">
                    <mxGeometry x="5" y="20" width="110" height="20" as="geometry"/>
                </mxCell>
                <mxCell id="113" value="" style="shape=image;html=1;verticalLabelPosition=bottom;verticalAlign=top;imageAspect=1;aspect=fixed;image=img/clipart/Gear_128x128.png" parent="61" vertex="1">
                    <mxGeometry x="-6" y="-8" width="20" height="23.46" as="geometry"/>
                </mxCell>
                <mxCell id="64" style="edgeStyle=orthogonalEdgeStyle;rounded=0;orthogonalLoop=1;jettySize=auto;html=1;entryX=0.5;entryY=0;entryDx=0;entryDy=0;" parent="1" target="boZw4MsQUKxaq4jCPLAk-143" edge="1">
                    <mxGeometry relative="1" as="geometry">
                        <mxPoint x="130" y="130.19998168945312" as="targetPoint"/>
                        <mxPoint x="130" y="101" as="sourcePoint"/>
                    </mxGeometry>
                </mxCell>
                <mxCell id="65" style="edgeStyle=orthogonalEdgeStyle;rounded=0;orthogonalLoop=1;jettySize=auto;html=1;entryX=0;entryY=0.5;entryDx=0;entryDy=0;exitX=0;exitY=0.5;exitDx=0;exitDy=0;" parent="1" source="68" target="53" edge="1">
                    <mxGeometry relative="1" as="geometry">
                        <mxPoint x="-115" y="118" as="sourcePoint"/>
                        <Array as="points">
                            <mxPoint x="-76" y="375"/>
                            <mxPoint x="-76" y="70"/>
                        </Array>
                    </mxGeometry>
                </mxCell>
                <mxCell id="67" value="" style="group" parent="1" vertex="1" connectable="0">
                    <mxGeometry x="70" y="345" width="120" height="60" as="geometry"/>
                </mxCell>
                <mxCell id="68" value="" style="rounded=0;whiteSpace=wrap;html=1;" parent="67" vertex="1">
                    <mxGeometry width="120" height="60" as="geometry"/>
                </mxCell>
                <mxCell id="69" value="Affichage des recettes correspondantes" style="text;html=1;strokeColor=none;fillColor=none;align=center;verticalAlign=middle;whiteSpace=wrap;rounded=0;" parent="67" vertex="1">
                    <mxGeometry x="5" y="20" width="110" height="20" as="geometry"/>
                </mxCell>
                <mxCell id="74" value="" style="group" parent="1" vertex="1" connectable="0">
                    <mxGeometry x="68" y="429" width="120" height="60" as="geometry"/>
                </mxCell>
                <mxCell id="75" value="" style="rounded=0;whiteSpace=wrap;html=1;" parent="74" vertex="1">
                    <mxGeometry width="120" height="60" as="geometry"/>
                </mxCell>
                <mxCell id="76" value="&lt;b&gt;L'utilisateur supprime un tag&lt;/b&gt;" style="text;html=1;strokeColor=none;fillColor=none;align=center;verticalAlign=middle;whiteSpace=wrap;rounded=0;" parent="74" vertex="1">
                    <mxGeometry x="5" y="20" width="110" height="20" as="geometry"/>
                </mxCell>
                <mxCell id="77" style="edgeStyle=orthogonalEdgeStyle;rounded=0;orthogonalLoop=1;jettySize=auto;html=1;exitX=0.5;exitY=1;exitDx=0;exitDy=0;entryX=0.5;entryY=0;entryDx=0;entryDy=0;" parent="1" source="68" target="75" edge="1">
                    <mxGeometry relative="1" as="geometry"/>
                </mxCell>
                <mxCell id="85" value="" style="group" parent="1" vertex="1" connectable="0">
                    <mxGeometry x="68" y="605" width="120" height="60" as="geometry"/>
                </mxCell>
                <mxCell id="86" value="" style="rounded=0;whiteSpace=wrap;html=1;" parent="85" vertex="1">
                    <mxGeometry width="120" height="60" as="geometry"/>
                </mxCell>
                <mxCell id="87" value="Algorithme de recherche sur les 50 recettes avec le contenu de l'input" style="text;html=1;strokeColor=none;fillColor=none;align=center;verticalAlign=middle;whiteSpace=wrap;rounded=0;" parent="85" vertex="1">
                    <mxGeometry x="5" y="20" width="110" height="20" as="geometry"/>
                </mxCell>
                <mxCell id="114" value="" style="shape=image;html=1;verticalLabelPosition=bottom;verticalAlign=top;imageAspect=1;aspect=fixed;image=img/clipart/Gear_128x128.png" parent="85" vertex="1">
                    <mxGeometry x="-8" y="-9" width="20" height="23.46" as="geometry"/>
                </mxCell>
                <mxCell id="88" value="" style="group" parent="1" vertex="1" connectable="0">
                    <mxGeometry x="68" y="512" width="120" height="60" as="geometry"/>
                </mxCell>
                <mxCell id="89" value="" style="rounded=0;whiteSpace=wrap;html=1;" parent="88" vertex="1">
                    <mxGeometry width="120" height="60" as="geometry"/>
                </mxCell>
                <mxCell id="90" value="Suppression du tag dans la vue" style="text;html=1;strokeColor=none;fillColor=none;align=center;verticalAlign=middle;whiteSpace=wrap;rounded=0;" parent="88" vertex="1">
                    <mxGeometry x="5" y="20" width="110" height="20" as="geometry"/>
                </mxCell>
                <mxCell id="92" style="edgeStyle=orthogonalEdgeStyle;rounded=0;orthogonalLoop=1;jettySize=auto;html=1;exitX=0.5;exitY=1;exitDx=0;exitDy=0;entryX=0.5;entryY=0;entryDx=0;entryDy=0;" parent="1" source="75" target="89" edge="1">
                    <mxGeometry relative="1" as="geometry"/>
                </mxCell>
                <mxCell id="93" value="" style="edgeStyle=orthogonalEdgeStyle;rounded=0;orthogonalLoop=1;jettySize=auto;html=1;entryX=0.5;entryY=0;entryDx=0;entryDy=0;" parent="1" source="89" target="86" edge="1">
                    <mxGeometry relative="1" as="geometry">
                        <mxPoint x="127" y="598" as="targetPoint"/>
                    </mxGeometry>
                </mxCell>
                <mxCell id="94" value="" style="group" parent="1" vertex="1" connectable="0">
                    <mxGeometry x="68" y="692" width="120" height="60" as="geometry"/>
                </mxCell>
                <mxCell id="95" value="" style="rounded=0;whiteSpace=wrap;html=1;" parent="94" vertex="1">
                    <mxGeometry width="120" height="60" as="geometry"/>
                </mxCell>
                <mxCell id="96" value="Algorithme de recherche sur les recettes restantes avec un tag" style="text;html=1;strokeColor=none;fillColor=none;align=center;verticalAlign=middle;whiteSpace=wrap;rounded=0;" parent="94" vertex="1">
                    <mxGeometry x="5" y="20" width="110" height="20" as="geometry"/>
                </mxCell>
                <mxCell id="115" value="" style="shape=image;html=1;verticalLabelPosition=bottom;verticalAlign=top;imageAspect=1;aspect=fixed;image=img/clipart/Gear_128x128.png" parent="94" vertex="1">
                    <mxGeometry x="-9" y="-9" width="20" height="23.46" as="geometry"/>
                </mxCell>
                <mxCell id="97" style="edgeStyle=orthogonalEdgeStyle;rounded=0;orthogonalLoop=1;jettySize=auto;html=1;exitX=0.5;exitY=1;exitDx=0;exitDy=0;entryX=0.5;entryY=0;entryDx=0;entryDy=0;" parent="1" source="86" target="95" edge="1">
                    <mxGeometry relative="1" as="geometry"/>
                </mxCell>
                <mxCell id="98" style="edgeStyle=orthogonalEdgeStyle;rounded=0;orthogonalLoop=1;jettySize=auto;html=1;exitX=0.5;exitY=1;exitDx=0;exitDy=0;entryX=0.5;entryY=0;entryDx=0;entryDy=0;entryPerimeter=0;" parent="1" source="95" target="cc3kvlt853hHsDUfgleY-133" edge="1">
                    <mxGeometry relative="1" as="geometry">
                        <mxPoint x="127" y="775" as="targetPoint"/>
                    </mxGeometry>
                </mxCell>
                <mxCell id="102" value="OUI" style="text;html=1;strokeColor=none;fillColor=none;align=center;verticalAlign=middle;whiteSpace=wrap;rounded=0;" parent="1" vertex="1">
                    <mxGeometry x="9" y="761" width="40" height="17" as="geometry"/>
                </mxCell>
                <mxCell id="103" style="edgeStyle=orthogonalEdgeStyle;rounded=0;orthogonalLoop=1;jettySize=auto;html=1;entryX=0;entryY=0.5;entryDx=0;entryDy=0;exitX=0.029;exitY=0.51;exitDx=0;exitDy=0;exitPerimeter=0;" parent="1" source="cc3kvlt853hHsDUfgleY-133" target="95" edge="1">
                    <mxGeometry relative="1" as="geometry">
                        <mxPoint x="74" y="841" as="sourcePoint"/>
                        <Array as="points">
                            <mxPoint x="48" y="841"/>
                            <mxPoint x="48" y="722"/>
                        </Array>
                    </mxGeometry>
                </mxCell>
                <mxCell id="107" style="edgeStyle=orthogonalEdgeStyle;rounded=0;orthogonalLoop=1;jettySize=auto;html=1;exitX=1;exitY=0.5;exitDx=0;exitDy=0;entryX=0.5;entryY=1;entryDx=0;entryDy=0;" parent="1" source="cc3kvlt853hHsDUfgleY-133" target="56" edge="1">
                    <mxGeometry relative="1" as="geometry">
                        <mxPoint x="193" y="802" as="sourcePoint"/>
                        <mxPoint x="293" y="675" as="targetPoint"/>
                        <Array as="points">
                            <mxPoint x="289" y="840"/>
                        </Array>
                    </mxGeometry>
                </mxCell>
                <mxCell id="108" value="NON" style="text;html=1;strokeColor=none;fillColor=none;align=center;verticalAlign=middle;whiteSpace=wrap;rounded=0;" parent="1" vertex="1">
                    <mxGeometry x="221" y="809" width="40" height="20" as="geometry"/>
                </mxCell>
                <mxCell id="84" value="" style="shape=actor;whiteSpace=wrap;html=1;fillColor=#a20025;strokeColor=#6F0000;fontColor=#ffffff;" parent="1" vertex="1">
                    <mxGeometry x="62" y="414" width="18" height="27" as="geometry"/>
                </mxCell>
                <mxCell id="83" value="" style="shape=actor;whiteSpace=wrap;html=1;fillColor=#a20025;strokeColor=#6F0000;fontColor=#ffffff;" parent="1" vertex="1">
                    <mxGeometry x="387" y="26" width="18" height="27" as="geometry"/>
                </mxCell>
                <mxCell id="82" value="" style="shape=actor;whiteSpace=wrap;html=1;fillColor=#a20025;strokeColor=#6F0000;fontColor=#ffffff;" parent="1" vertex="1">
                    <mxGeometry x="64" y="25" width="18" height="27" as="geometry"/>
                </mxCell>
                <mxCell id="119" style="edgeStyle=orthogonalEdgeStyle;rounded=0;orthogonalLoop=1;jettySize=auto;html=1;entryX=0.5;entryY=0;entryDx=0;entryDy=0;exitX=0;exitY=0.48;exitDx=0;exitDy=0;exitPerimeter=0;" parent="1" source="boZw4MsQUKxaq4jCPLAk-143" target="62" edge="1">
                    <mxGeometry relative="1" as="geometry">
                        <mxPoint x="72" y="154" as="sourcePoint"/>
                        <Array as="points">
                            <mxPoint x="2" y="167"/>
                        </Array>
                    </mxGeometry>
                </mxCell>
                <mxCell id="120" value="NON" style="text;html=1;strokeColor=none;fillColor=none;align=center;verticalAlign=middle;whiteSpace=wrap;rounded=0;" parent="1" vertex="1">
                    <mxGeometry x="8" y="183" width="40" height="20" as="geometry"/>
                </mxCell>
                <mxCell id="122" value="" style="group" parent="1" vertex="1" connectable="0">
                    <mxGeometry x="70" y="223" width="120" height="60" as="geometry"/>
                </mxCell>
                <mxCell id="123" value="" style="rounded=0;whiteSpace=wrap;html=1;" parent="122" vertex="1">
                    <mxGeometry y="16" width="120" height="60" as="geometry"/>
                </mxCell>
                <mxCell id="124" value="Algorithme de recherche sur les recettes restantes" style="text;html=1;strokeColor=none;fillColor=none;align=center;verticalAlign=middle;whiteSpace=wrap;rounded=0;" parent="122" vertex="1">
                    <mxGeometry x="6" y="36" width="110" height="20" as="geometry"/>
                </mxCell>
                <mxCell id="125" value="" style="shape=image;html=1;verticalLabelPosition=bottom;verticalAlign=top;imageAspect=1;aspect=fixed;image=img/clipart/Gear_128x128.png" parent="122" vertex="1">
                    <mxGeometry x="-5" y="8" width="20" height="23.46" as="geometry"/>
                </mxCell>
                <mxCell id="127" value="OUI" style="text;html=1;strokeColor=none;fillColor=none;align=center;verticalAlign=middle;whiteSpace=wrap;rounded=0;" parent="1" vertex="1">
                    <mxGeometry x="147" y="205" width="40" height="20" as="geometry"/>
                </mxCell>
                <mxCell id="128" value="" style="shape=flexArrow;endArrow=classic;html=1;fillColor=#60a917;strokeColor=#2D7600;" parent="1" edge="1">
                    <mxGeometry width="50" height="50" relative="1" as="geometry">
                        <mxPoint x="173.5" y="-15" as="sourcePoint"/>
                        <mxPoint x="173.5" y="40" as="targetPoint"/>
                    </mxGeometry>
                </mxCell>
                <mxCell id="129" value="" style="shape=flexArrow;endArrow=classic;html=1;fillColor=#60a917;strokeColor=#2D7600;" parent="1" edge="1">
                    <mxGeometry width="50" height="50" relative="1" as="geometry">
                        <mxPoint x="427" y="-15" as="sourcePoint"/>
                        <mxPoint x="427" y="40" as="targetPoint"/>
                    </mxGeometry>
                </mxCell>
                <mxCell id="cc3kvlt853hHsDUfgleY-133" value="" style="rhombus;whiteSpace=wrap;html=1;" parent="1" vertex="1">
                    <mxGeometry x="76" y="789" width="102" height="102" as="geometry"/>
                </mxCell>
                <mxCell id="CROXJ0N2FFN-WYlDxuID-136" value="POINTS D'ENTREE" style="text;html=1;fillColor=none;align=center;verticalAlign=middle;whiteSpace=wrap;rounded=0;strokeColor=#f0f0f0;" parent="1" vertex="1">
                    <mxGeometry x="142" y="-58" width="316" height="43" as="geometry"/>
                </mxCell>
                <mxCell id="CROXJ0N2FFN-WYlDxuID-139" value="Y a t il des correspondances?" style="text;html=1;strokeColor=none;fillColor=none;align=center;verticalAlign=middle;whiteSpace=wrap;rounded=0;" parent="1" vertex="1">
                    <mxGeometry x="433" y="557" width="40" height="20" as="geometry"/>
                </mxCell>
                <mxCell id="101" value="Il reste d'autres tags non traités" style="text;html=1;strokeColor=none;fillColor=none;align=center;verticalAlign=middle;whiteSpace=wrap;rounded=0;" parent="1" vertex="1">
                    <mxGeometry x="91.5" y="809" width="73" height="57" as="geometry"/>
                </mxCell>
                <mxCell id="boZw4MsQUKxaq4jCPLAk-133" value="" style="rhombus;whiteSpace=wrap;html=1;" parent="1" vertex="1">
                    <mxGeometry x="402" y="124" width="102" height="102" as="geometry"/>
                </mxCell>
                <mxCell id="8" value="Chaine &amp;gt; 3 caractères" style="text;html=1;strokeColor=none;fillColor=none;align=center;verticalAlign=middle;whiteSpace=wrap;rounded=0;" parent="1" vertex="1">
                    <mxGeometry x="398" y="165" width="110" height="20" as="geometry"/>
                </mxCell>
                <mxCell id="boZw4MsQUKxaq4jCPLAk-136" value="" style="rhombus;whiteSpace=wrap;html=1;" parent="1" vertex="1">
                    <mxGeometry x="592" y="124" width="102" height="102" as="geometry"/>
                </mxCell>
                <mxCell id="42" value="Nombre de caractères" style="text;html=1;strokeColor=none;fillColor=none;align=center;verticalAlign=middle;whiteSpace=wrap;rounded=0;" parent="1" vertex="1">
                    <mxGeometry x="590" y="164" width="110" height="20" as="geometry"/>
                </mxCell>
                <mxCell id="boZw4MsQUKxaq4jCPLAk-141" value="1 - 2" style="text;html=1;strokeColor=none;fillColor=none;align=center;verticalAlign=middle;whiteSpace=wrap;rounded=0;" parent="1" vertex="1">
                    <mxGeometry x="647" y="108" width="40" height="20" as="geometry"/>
                </mxCell>
                <mxCell id="boZw4MsQUKxaq4jCPLAk-155" style="edgeStyle=orthogonalEdgeStyle;rounded=0;orthogonalLoop=1;jettySize=auto;html=1;exitX=0.5;exitY=1;exitDx=0;exitDy=0;entryX=0.5;entryY=0;entryDx=0;entryDy=0;" parent="1" edge="1">
                    <mxGeometry relative="1" as="geometry">
                        <mxPoint x="130" y="220" as="sourcePoint"/>
                        <mxPoint x="131" y="239" as="targetPoint"/>
                    </mxGeometry>
                </mxCell>
                <mxCell id="boZw4MsQUKxaq4jCPLAk-143" value="" style="rhombus;whiteSpace=wrap;html=1;" parent="1" vertex="1">
                    <mxGeometry x="80" y="118" width="102" height="102" as="geometry"/>
                </mxCell>
                <mxCell id="118" value="l'input contient déjà des données" style="text;html=1;strokeColor=none;fillColor=none;align=center;verticalAlign=middle;whiteSpace=wrap;rounded=0;" parent="1" vertex="1">
                    <mxGeometry x="93.96000000000001" y="154" width="74.08" height="20" as="geometry"/>
                </mxCell>
                <mxCell id="boZw4MsQUKxaq4jCPLAk-147" style="edgeStyle=orthogonalEdgeStyle;rounded=0;orthogonalLoop=1;jettySize=auto;html=1;exitX=0;exitY=0.5;exitDx=0;exitDy=0;entryX=1;entryY=0.5;entryDx=0;entryDy=0;" parent="1" source="boZw4MsQUKxaq4jCPLAk-146" target="56" edge="1">
                    <mxGeometry relative="1" as="geometry">
                        <mxPoint x="353" y="576" as="targetPoint"/>
                    </mxGeometry>
                </mxCell>
                <mxCell id="boZw4MsQUKxaq4jCPLAk-148" value="OUI" style="text;html=1;strokeColor=none;fillColor=none;align=center;verticalAlign=middle;whiteSpace=wrap;rounded=0;" parent="1" vertex="1">
                    <mxGeometry x="358" y="550" width="40" height="17" as="geometry"/>
                </mxCell>
                <mxCell id="boZw4MsQUKxaq4jCPLAk-149" value="" style="group" parent="1" vertex="1" connectable="0">
                    <mxGeometry x="556" y="545.5" width="120" height="60" as="geometry"/>
                </mxCell>
                <mxCell id="boZw4MsQUKxaq4jCPLAk-150" value="" style="rounded=0;whiteSpace=wrap;html=1;" parent="boZw4MsQUKxaq4jCPLAk-149" vertex="1">
                    <mxGeometry width="120" height="60" as="geometry"/>
                </mxCell>
                <mxCell id="boZw4MsQUKxaq4jCPLAk-151" value="Message d'information &quot;Aucune recette&quot;" style="text;html=1;strokeColor=none;fillColor=none;align=center;verticalAlign=middle;whiteSpace=wrap;rounded=0;" parent="boZw4MsQUKxaq4jCPLAk-149" vertex="1">
                    <mxGeometry x="5" y="20" width="110" height="20" as="geometry"/>
                </mxCell>
                <mxCell id="boZw4MsQUKxaq4jCPLAk-153" value="NON" style="text;html=1;strokeColor=none;fillColor=none;align=center;verticalAlign=middle;whiteSpace=wrap;rounded=0;" parent="1" vertex="1">
                    <mxGeometry x="513" y="554" width="40" height="17" as="geometry"/>
                </mxCell>
                <mxCell id="56" value="" style="rounded=0;whiteSpace=wrap;html=1;" parent="1" vertex="1">
                    <mxGeometry x="229" y="545.5" width="120" height="60" as="geometry"/>
                </mxCell>
                <mxCell id="55" value="" style="group" parent="1" vertex="1" connectable="0">
                    <mxGeometry x="229" y="545.5" width="120" height="60" as="geometry"/>
                </mxCell>
                <mxCell id="57" value="Affichage des recettes correspondantes" style="text;html=1;strokeColor=none;fillColor=none;align=center;verticalAlign=middle;whiteSpace=wrap;rounded=0;" parent="55" vertex="1">
                    <mxGeometry x="5" y="20" width="110" height="20" as="geometry"/>
                </mxCell>
                <mxCell id="boZw4MsQUKxaq4jCPLAk-158" style="edgeStyle=orthogonalEdgeStyle;rounded=0;orthogonalLoop=1;jettySize=auto;html=1;exitX=0.5;exitY=1;exitDx=0;exitDy=0;entryX=0.5;entryY=0;entryDx=0;entryDy=0;" parent="1" source="123" target="68" edge="1">
                    <mxGeometry relative="1" as="geometry">
                        <mxPoint x="129" y="442" as="sourcePoint"/>
                    </mxGeometry>
                </mxCell>
                <mxCell id="boZw4MsQUKxaq4jCPLAk-167" style="edgeStyle=orthogonalEdgeStyle;rounded=0;orthogonalLoop=1;jettySize=auto;html=1;exitX=0.5;exitY=1;exitDx=0;exitDy=0;entryX=0.5;entryY=0;entryDx=0;entryDy=0;" parent="1" source="62" target="68" edge="1">
                    <mxGeometry relative="1" as="geometry"/>
                </mxCell>
            </root>
        </mxGraphModel>
    </diagram>
</mxfile>